<svg xmlns="http://www.w3.org/2000/svg" xmlns:xlink="http://www.w3.org/1999/xlink" viewBox="0 0 267.02 310.12"><defs><style>.cls-1{fill:none;}.cls-2{fill:#a0a8a8;}.cls-3{clip-path:url(#clip-path);}.cls-14,.cls-4{fill:#feffff;}.cls-4,.cls-9{opacity:0.22;}.cls-5{fill:#121c5e;}.cls-6{fill:#e7bc90;}.cls-7{fill:#d88773;}.cls-8{fill:#0c112c;}.cls-10{fill:#d78142;}.cls-11{fill:#cbd1d1;}.cls-12{fill:#e3e8e8;}.cls-13{fill:#1f2f6e;}.cls-14{opacity:0.21;}.cls-15{fill:#e8e8e8;}.cls-16{fill:#ebbb2c;}.cls-17{fill:#5665c7;}.cls-18{fill:#ececea;}.cls-19{fill:#382d7c;}.cls-20{opacity:0.31;}.cls-21{clip-path:url(#clip-path-2);}.cls-22{opacity:0.32;}.cls-23{fill:#3c37b2;}.cls-24{fill:#fff;}</style><clipPath id="clip-path"><path class="cls-1" d="M130.65,138.68a23.5,23.5,0,1,1-8.42-32.15A23.49,23.49,0,0,1,130.65,138.68Z"/></clipPath><clipPath id="clip-path-2"><path class="cls-1" d="M6.75,10.7C7,10.44,15.6,43.5,70.21,66.16L89.4,27.53S38.71-3.41,6.75,10.7Z"/></clipPath></defs><title>Ativo 4</title><g id="Camada_2" data-name="Camada 2"><g id="Objects"><path class="cls-2" d="M108.88,155.11c2.05-3,9-2.32,11.75.07s3.57,6.44,3,10-2.35,6.88-4.09,10.08Q109.81,193.17,100.1,211c-.92,1.7-1.92,3.47-3.6,4.42-2.34,1.32-5.41.59-7.53-1.06s-3.52-4-4.86-6.37"/><path class="cls-2" d="M97.13,149.05c2-3,8.85-2.29,11.55.07s3.5,6.32,2.93,9.85-2.3,6.76-4,9.9Q98,186.44,88.51,204c-.9,1.66-1.89,3.4-3.53,4.33-2.3,1.3-5.32.58-7.41-1s-3.45-4-4.77-6.26"/><g class="cls-3"><path class="cls-4" d="M130.65,138.68a23.5,23.5,0,1,1-8.42-32.15A23.49,23.49,0,0,1,130.65,138.68Z"/><path class="cls-5" d="M107.47,104.64a11.24,11.24,0,0,0,2.45,7.6c2.84,3.28,11.59,1.38,15.68,5a16.31,16.31,0,0,1,1.75,20.41c-7.24,11.74-24.26,12.48-25,12.21s14,9.29,22,3.73,22-37.19,2.43-46.41S107.47,104.64,107.47,104.64Z"/><path class="cls-6" d="M114.45,138.69l-9.73,15.38c-4,.15-7.53-1.56-10.3-6l9-15.47Z"/><path class="cls-6" d="M104,112.71S95.4,127.22,93.74,131a9.17,9.17,0,0,0,3.57,11.68c4.37,2.44,10.14,3.81,14,.28s11-19.59,11-19.59Z"/><path class="cls-7" d="M107.76,144.05a11.27,11.27,0,0,1-10.84-1.18c-.23-.16,0-.54.23-.38A12.76,12.76,0,0,0,107.71,144c.07,0,.11.08.05.1Z"/><path class="cls-8" d="M104.6,127.33a5,5,0,0,1-1.44,2.36,12,12,0,0,1-1.12.73c-1.36.91-1.46,1.67-1.21,3.16,0,.34-.45.48-.52.14a3.36,3.36,0,0,1,.49-3.06,4.82,4.82,0,0,1,1.19-.73,4.84,4.84,0,0,0,2.29-2.68c.07-.2.39-.12.32.08Z"/><path class="cls-8" d="M101.5,125.85a.38.38,0,0,1,.38-.65.38.38,0,0,1-.38.65Z"/><path class="cls-8" d="M109.46,130.75a.38.38,0,0,1,.38-.66.38.38,0,0,1-.38.66Z"/><g class="cls-9"><path class="cls-7" d="M105.79,133.45c-.6.82-.05,2.23,1.3,3s2.84.62,3.29-.29-.21-2.15-1.4-2.87S106.38,132.62,105.79,133.45Z"/></g><g class="cls-9"><path class="cls-7" d="M96,127.68a1.66,1.66,0,0,0-.28,1.4,2.11,2.11,0,0,0,2.52,1.52,1.65,1.65,0,0,0,1.1-.91,1.87,1.87,0,0,0,.08-1.41,1.94,1.94,0,0,0-.84-1.09,2,2,0,0,0-1.36-.24A1.94,1.94,0,0,0,96,127.68Z"/></g><path class="cls-6" d="M117.16,133.24s5.13,1.6,2.6,6.23-7.23,1.69-7.23,1.69Z"/><path class="cls-7" d="M117.78,136.48a2,2,0,0,1,0,2.65,2,2,0,0,1-2.51.53.45.45,0,0,1,.2-.74c.54-.14,1,.05,1.49-.38a1.71,1.71,0,0,0,.33-1.76c-.07-.29.32-.54.52-.3Z"/><path class="cls-10" d="M121.94,129.43a11,11,0,0,0,1.1-4.22v0c0-.2.08-.45.11-.74s.08-.62.09-1a11.42,11.42,0,0,0,0-1.2,13.24,13.24,0,0,0-.07-1.37,20,20,0,0,0-.57-3.11,19.1,19.1,0,0,0-1.13-3c-.23-.43-.43-.85-.66-1.21s-.44-.71-.65-1-.42-.56-.6-.79a5.48,5.48,0,0,0-.48-.58,3.3,3.3,0,0,0-.44-.45,3.66,3.66,0,0,0,.39.5c.13.16.28.35.45.59s.37.5.56.81a11.14,11.14,0,0,1,.63,1c.22.37.42.78.64,1.21a21.47,21.47,0,0,1,1.1,2.92,19.79,19.79,0,0,1,.58,3.07c0,.48.09.94.09,1.37s0,.82,0,1.19a2.28,2.28,0,0,1,0,.26,17.08,17.08,0,0,0-3.94-11.11c-.6-.72-1.49-2.26-2.67-1.79-.66.26-1.38,1.54-.72,2.2a26.91,26.91,0,0,1-2.26-2.87,5,5,0,0,0-2.83-2.21c-1.2-.24-2.93.94-2.19,2.51a4.49,4.49,0,0,0-1.65-.82,6,6,0,0,0-1.78-.39,4.49,4.49,0,0,0-2.14.38,3,3,0,0,0-1.54,1.53,3.44,3.44,0,0,0-.15,2,4.5,4.5,0,0,0,.73,1.68,6.1,6.1,0,0,0,1.09,1.16l.44.34c1.45,1.54,3.52,2.47,5.5,3.58,2.62,1.46,5.42,2.66,7.72,4.59a5,5,0,0,1,2,3,3.86,3.86,0,0,1,0,.68L114.77,136l3.44-.13,1.42-2.41A16.8,16.8,0,0,0,121.94,129.43Zm-19.85-14.67a4.62,4.62,0,0,1-.69-1.63,3.23,3.23,0,0,1,.16-1.91A2.77,2.77,0,0,1,103,109.8a4.49,4.49,0,0,1,2-.37h.08a3,3,0,0,0-1.9.74,4,4,0,0,0-.9,4.35l0,.08a6.58,6.58,0,0,0,.75,1.2A6.39,6.39,0,0,1,102.09,114.76Z"/><path class="cls-8" d="M99.25,136a.91.91,0,0,0-.21,1.15.85.85,0,0,0,1.18.28.88.88,0,0,0-.79-1.57c-.16.08,0,.31.12.28.62-.11,1.13.65.46,1s-1-.54-.58-1c.12-.12-.06-.28-.18-.18Z"/><path class="cls-8" d="M110.24,126.27a2.44,2.44,0,0,1,1.52,1.24c.13.22.52.08.42-.18a2.37,2.37,0,0,0-1.84-1.42c-.24,0-.34.31-.1.36Z"/><path class="cls-8" d="M101.73,121.17a1.25,1.25,0,0,1,1.39.68c.12.23.45,0,.34-.21a1.6,1.6,0,0,0-1.81-.79.16.16,0,0,0,.08.32Z"/></g><path class="cls-5" d="M110.84,189.26c5.09-9.84,5.07-16.13,5-17.6a14.8,14.8,0,0,0-.13-1.85c-.35-2.09-2.39-12.37-9.21-17.61l-12.2-7.14s-9.69-3.9-18.55.17c-10.27,5-24.08,19.29-24.82,19.72-.55.32-5.78-12.07-5.78-12.07l-7,2.71s6.77,18,8.2,20.08,3.06,2.1,3.06,2.1c4,.29,12.74-5.72,18.25-9.89L52.05,195,82.9,214.82,97.38,186.1C99.79,187.07,110.84,189.26,110.84,189.26Z"/><path class="cls-5" d="M89.43,208.36c-2-1.56-13.93-16.62-13.93-16.62L81.33,187s8.76,10.2,9.19,9.73c.57-.64,8.45-11.73,7.93-10.42l12.39,2.92S99,208,93,209.43C93,209.43,91.53,210,89.43,208.36Z"/><path class="cls-11" d="M84.71,188.56s-3.66-3.65-3.93-4,1.56-4.75.66-4.51-2.21,2.66-2.21,2.66-3.82-5.57-4.43-4.67,1.7,3.72,1.7,3.72-3.81-4.4-4.24-3.53,2.9,4.2,2.9,4.2S72,179.5,71,179.67s2.71,3.86,2.71,3.86-3.52-2.56-4.07-2.31,7.51,12.45,7.51,12.45Z"/><path class="cls-5" d="M52.27,194.38S25.41,231.79,27.66,254C29.88,275.93,35.5,288,35.5,288s-5.36,5.27-5.88,8.51c-.46,2.87,18.47-10,18.47-10s-9.59-26.15-1.6-43.29A188.24,188.24,0,0,1,63.7,213.68s-16.48,29.13-11.42,48.45,7.59,36.53,7.59,36.53-6.24,11.71-4.88,11.2c2.38-.88,14.38-9,18.48-11.52,1.2-.73-4.66-36.1-4.52-43.35.14-7.75,15.3-42.85,15.3-42.85Z"/><path class="cls-11" d="M47.6,156.14s-2.46-4.76-2.6-5.2,3-4.19,2.07-4.24-3,1.92-3,1.92-2-6.68-2.89-6,.5,4.19.5,4.19S39.3,141.3,38.6,142s1.54,5.05,1.54,5.05-2.19-3.86-3.21-4,1.45,4.65,1.45,4.65-2.66-3.63-3.28-3.56,3.47,14.63,3.47,14.63Z"/><path class="cls-12" d="M94.3,145.06a1.93,1.93,0,0,1,1.07-1.83l12.32,6.94a2,2,0,0,1-1.19,2Z"/><path class="cls-12" d="M106.79,152.32s0,.29-.3.66a2.44,2.44,0,0,1-1.86.69,7.27,7.27,0,0,1-2.73-.87,29.5,29.5,0,0,1-3-1.66,27.25,27.25,0,0,1-4.85-3.88,3.27,3.27,0,0,1-.7-.9,1.28,1.28,0,0,1-.07-.91c.18-.51.55-.55.54-.5s-.2.18-.24.57.23.85.85,1.33a42.63,42.63,0,0,0,4.89,3.62c1,.64,2,1.19,2.9,1.67a7.56,7.56,0,0,0,2.44,1,2.31,2.31,0,0,0,1.62-.36C106.62,152.51,106.74,152.29,106.79,152.32Z"/><path class="cls-11" d="M94.73,200.94c-.13,0-.25-.94-.81-2.34a11.88,11.88,0,0,0-3.38-4.68c-3.62-3-6.46-5.57-6.32-5.74s3.2,2.13,6.82,5.14a10.62,10.62,0,0,1,3.41,5.1A4.66,4.66,0,0,1,94.73,200.94Z"/><path class="cls-11" d="M97.51,197.24c-.06.08-.49-.12-1-.65s-1.06-1.35-1.77-2a3.47,3.47,0,0,0-1.11-.74,2.5,2.5,0,0,0-1-.13c-.62.06-.93.38-1,.3s.1-.58.89-.85a2.54,2.54,0,0,1,1.4,0,3.43,3.43,0,0,1,1.43.86,12.39,12.39,0,0,1,1.66,2.26C97.31,196.82,97.58,197.15,97.51,197.24Z"/><path class="cls-11" d="M104.32,177.49a11.46,11.46,0,0,1-1.48,2.46c-1,1.46-2.35,3.48-3.89,5.68s-3,4.2-4,5.62a12.42,12.42,0,0,1-1.79,2.24c-.21-.13,2-3.89,5.14-8.31S104.13,177.34,104.32,177.49Z"/><path class="cls-11" d="M89.67,208.59c-.14.15-3.43-2.84-6.82-7.13s-5.56-8.17-5.38-8.28,2.63,3.55,6,7.79S89.84,208.43,89.67,208.59Z"/><path class="cls-11" d="M114.51,175c0,.24-2.86-.25-6.12.78s-5.34,3-5.5,2.81.35-.67,1.24-1.42a12,12,0,0,1,4-2.14,11.83,11.83,0,0,1,4.53-.5C113.85,174.61,114.53,174.87,114.51,175Z"/><path class="cls-11" d="M115.8,170.63c0,.13-.94.05-2.37.29a11.52,11.52,0,0,0-2.42.7,14.17,14.17,0,0,0-2.67,1.54,20.45,20.45,0,0,0-4,4c-.9,1.17-1.4,1.94-1.5,1.88a5.73,5.73,0,0,1,1-2.2,16.09,16.09,0,0,1,4-4.35,12.86,12.86,0,0,1,2.87-1.59,9.55,9.55,0,0,1,2.63-.57A4.53,4.53,0,0,1,115.8,170.63Z"/><path class="cls-11" d="M114.47,164.8c0,.13-1.14.24-2.82.93a16.65,16.65,0,0,0-5.78,4A8.9,8.9,0,0,0,104,173a17.59,17.59,0,0,0-.72,3.1,20.82,20.82,0,0,1-.4,3,8.06,8.06,0,0,1-.15-3,14.81,14.81,0,0,1,.57-3.27,9.12,9.12,0,0,1,2-3.59,15,15,0,0,1,6.17-4A5.78,5.78,0,0,1,114.47,164.8Z"/><path class="cls-11" d="M81.76,143.76a22.73,22.73,0,0,1-1.93,3.77c-1.27,2.29-3,5.44-5,8.91S71,163,69.6,165.23a21.28,21.28,0,0,1-2.42,3.49A24.49,24.49,0,0,1,69.12,165c1.31-2.34,3.07-5.46,5-8.91s3.82-6.57,5.22-8.79A20.94,20.94,0,0,1,81.76,143.76Z"/><path class="cls-11" d="M73.83,156.42c-.21,0-.09-2.72.62-6s1.71-5.76,1.91-5.69-.45,2.65-1.14,5.86S74.05,156.45,73.83,156.42Z"/><path class="cls-11" d="M70.64,162.05c-.21,0-.27-3.39.08-7.55s1-7.49,1.2-7.46-.06,3.39-.41,7.53S70.87,162.06,70.64,162.05Z"/><path class="cls-11" d="M48.63,171.14c-.2,0-.58-1.62.07-3.55s1.93-3.05,2.07-2.89-.75,1.38-1.32,3.14S48.86,171.12,48.63,171.14Z"/><path class="cls-11" d="M52.44,171.38c-.08.07-.42-.17-.83-.69a6.57,6.57,0,0,1-1.11-2.3,6.48,6.48,0,0,1-.18-2.55c.09-.65.27-1,.37-1s.08,1.58.57,3.36S52.62,171.24,52.44,171.38Z"/><polygon class="cls-13" points="106.21 180.49 104.88 183.29 111.92 187.41 113.09 184.37 106.21 180.49"/><path class="cls-13" d="M111.31,188.38a16.22,16.22,0,0,1-3.62-1.75,16.31,16.31,0,0,1-3.31-2.28,28.71,28.71,0,0,1,3.51,1.94A27.8,27.8,0,0,1,111.31,188.38Z"/><rect class="cls-11" x="74.71" y="162.71" width="23.35" height="15.98" transform="translate(97.97 -20.26) rotate(30.31)"/><path class="cls-13" d="M86.25,169s.15-.33.32-.94a4.09,4.09,0,0,0-.21-2.61,3.9,3.9,0,1,0-3.15,5.4,4,4,0,0,0,2.37-1.11c.46-.44.63-.76.67-.74s0,.09-.11.24a2.89,2.89,0,0,1-.45.61,4.07,4.07,0,0,1-2.45,1.28,4.24,4.24,0,1,1,3.38-5.79,4.05,4.05,0,0,1,.09,2.76,2.69,2.69,0,0,1-.31.69Q86.27,169,86.25,169Z"/><path class="cls-13" d="M97.17,172.89a22.74,22.74,0,0,1-3.8-2,23,23,0,0,1-3.59-2.33,24.39,24.39,0,0,1,3.79,2A23.69,23.69,0,0,1,97.17,172.89Z"/><path class="cls-13" d="M95.25,175.9A21.68,21.68,0,0,1,91.62,174a21.2,21.2,0,0,1-3.42-2.27,21,21,0,0,1,3.62,1.93A20.83,20.83,0,0,1,95.25,175.9Z"/><path class="cls-13" d="M76.23,172.15c-.09-.05,0-.42.22-.82s.47-.68.56-.63,0,.42-.21.82S76.33,172.2,76.23,172.15Z"/><path class="cls-13" d="M79.88,174c-.11,0-.17-.35,0-.74s.44-.61.52-.54,0,.35-.15.68S80,174,79.88,174Z"/><path class="cls-13" d="M83.42,176.1c-.1,0-.17-.35,0-.74s.44-.61.52-.53,0,.34-.15.67S83.53,176.11,83.42,176.1Z"/><path class="cls-13" d="M87.26,178.35c-.1,0-.17-.35,0-.75s.44-.6.52-.53,0,.35-.15.68S87.37,178.36,87.26,178.35Z"/><path class="cls-13" d="M91,180.52c-.11,0-.18-.36,0-.75s.43-.6.52-.53,0,.35-.16.67S91.08,180.52,91,180.52Z"/><path class="cls-11" d="M63.33,214.12a13.4,13.4,0,0,1-2-2.58c-1.16-1.66-2.7-4-4.33-6.61s-3-5-4-6.82a13.22,13.22,0,0,1-1.42-3,14,14,0,0,1,1.9,2.68c1.1,1.7,2.58,4.06,4.2,6.68s3.09,5,4.13,6.72A13.19,13.19,0,0,1,63.33,214.12Z"/><path class="cls-11" d="M82.48,216c0,.22-4.32,0-9.61-.54s-9.55-1.12-9.53-1.33,4.32,0,9.61.54S82.5,215.8,82.48,216Z"/><path class="cls-11" d="M54,190.55c3.91,4.61,9.5,8.46,14.5,11.83a92.49,92.49,0,0,0,16.62,8.75c1.61.66,2.31-2,.7-2.63A111.36,111.36,0,0,1,69.07,200c-5-3.16-9.33-7.23-14.24-10.53-.71-.47-1.38.54-.88,1.13Z"/><path class="cls-11" d="M68.82,253.79c0,.22-1.18.21-2.57.26s-2.53.15-2.58-.07,1.07-.66,2.55-.72S68.85,253.58,68.82,253.79Z"/><path class="cls-11" d="M69.29,254.29c.09.21-1,.87-2.27,1.73s-2.31,1.61-2.46,1.45.67-1.2,2-2.1S69.2,254.1,69.29,254.29Z"/><path class="cls-11" d="M57.3,251.08s.08-.12.33-.22a1.79,1.79,0,0,1,1.15,0,2.64,2.64,0,0,1,1.47,1.09,6.24,6.24,0,0,1,.86,2.22,25.74,25.74,0,0,1,.67,6,7.06,7.06,0,0,1-.94,3.58,3.8,3.8,0,0,1-1.53,1.38,3.69,3.69,0,0,1-2.1.31,5.21,5.21,0,0,1-3.44-2.06,7.85,7.85,0,0,1-1.33-3.44,18.38,18.38,0,0,1-.15-3.26,10.13,10.13,0,0,1,.43-2.84A4.92,4.92,0,0,1,54,251.79a3.71,3.71,0,0,1,1.55-.92,1.87,1.87,0,0,1,1.51,0,5.22,5.22,0,0,0-1.41.27A4.14,4.14,0,0,0,53.26,254a9.63,9.63,0,0,0-.31,2.68,18.92,18.92,0,0,0,.21,3.13,7.23,7.23,0,0,0,1.23,3.1,4.49,4.49,0,0,0,2.92,1.74,2.9,2.9,0,0,0,2.88-1.33,6.52,6.52,0,0,0,.86-3.19,28.12,28.12,0,0,0-.49-5.89,6.26,6.26,0,0,0-.68-2.09,2.21,2.21,0,0,0-2.58-1.08Z"/><path class="cls-11" d="M55.12,310.08a133.61,133.61,0,0,0,18.67-11.51c.47-.34,0-1.13-.44-.79-5.93,4.34-12.38,7.8-18.48,11.86a.25.25,0,0,0,.25.44Z"/><path class="cls-11" d="M59.22,299c5-1.05,10.15-3.34,14.82-5.32.43-.19.14-.9-.31-.76-4.82,1.56-10.22,3.22-14.66,5.69a.21.21,0,0,0,.15.39Z"/><path class="cls-11" d="M30.06,297.28c6.79-1.76,12.69-6.85,18.36-10.76.48-.33,0-1.11-.44-.78a140.34,140.34,0,0,1-18.1,11.09c-.26.12-.09.52.18.45Z"/><path class="cls-11" d="M35.16,288.13a53.25,53.25,0,0,0,11.66-4.43c.41-.21.13-.93-.31-.77A92.83,92.83,0,0,0,35,287.71a.23.23,0,0,0,.17.42Z"/><path class="cls-11" d="M37.45,244.16c0-.21,2-.23,4,.86s3.22,2.67,3,2.79-1.47-1.11-3.41-2.09S37.43,244.39,37.45,244.16Z"/><path class="cls-11" d="M38.66,248.34c-.06-.08.18-.39.7-.71a5.13,5.13,0,0,1,4.64-.21c.55.27.82.55.77.64s-1.41-.4-3.08-.3S38.79,248.53,38.66,248.34Z"/><path class="cls-11" d="M30.71,242.32s.08-.12.3-.28a2.72,2.72,0,0,1,1.1-.41,3.93,3.93,0,0,1,1.87.17A4.45,4.45,0,0,1,36,243.21a9.33,9.33,0,0,1,1.71,6.06A16.26,16.26,0,0,1,37.3,253a6.24,6.24,0,0,1-2,3.62,2.63,2.63,0,0,1-2.21.48,3.51,3.51,0,0,1-1.82-1.15,6.12,6.12,0,0,1-1-1.71c-.24-.59-.43-1.16-.61-1.73a13,13,0,0,1-.56-6.27A7.72,7.72,0,0,1,31,242.4c.69-.75,1.21-1,1.23-1s-.41.38-1,1.14a8.16,8.16,0,0,0-1.53,3.73,12.93,12.93,0,0,0,.71,6,9.42,9.42,0,0,0,1.49,3.15,2.76,2.76,0,0,0,1.42.89,1.85,1.85,0,0,0,1.56-.34A4,4,0,0,0,36,254.56a9.61,9.61,0,0,0,.6-1.76,17.05,17.05,0,0,0,.47-3.54,9,9,0,0,0-1.43-5.7,4.07,4.07,0,0,0-3.44-1.63A6.3,6.3,0,0,0,30.71,242.32Z"/><path class="cls-11" d="M64.8,214.44c0,.21-2-.07-4.47-.64S56,212.61,56,212.4s2.06.07,4.48.63S64.85,214.22,64.8,214.44Z"/><path class="cls-11" d="M67.43,220.14c-.19.11-1.18-1.12-2.35-2.66s-2.09-2.83-1.92-3,1.36.93,2.55,2.5S67.61,220,67.43,220.14Z"/><path class="cls-12" d="M107.72,103.27a7.75,7.75,0,0,0,1.49,6.82,12.88,12.88,0,0,0,5.94,4,38.65,38.65,0,0,0,7.08,1.52c.85.12,1.89.17,2.37-.54a2.06,2.06,0,0,0,0-1.8,12.74,12.74,0,0,0-6.58-7.13,27.1,27.1,0,0,0-9.61-2.41"/><path class="cls-14" d="M129,122.51s-15.84,13.25-41.29-1.77c0,0-1.38,5.69-.57,9.32,0,0,29,13,43.31-.27C130.41,129.79,129.38,123.44,129,122.51Z"/><path class="cls-15" d="M96,203.71c-5.94,19.9,6.8,44,27.77,48,9.35,1.81,21-1.14,23.85-11.37,2.28-8.23-2.47-18-12-17.06-12,1.2-15.7,14.31-14.45,24.48a51.21,51.21,0,0,0,14.43,29.11c7.49,7.65,17.45,13.29,28.1,14.93A49.9,49.9,0,0,0,185.06,290c21.92-6.41,38.72-24.39,45.77-45.84.23-.7-.84-1-1.09-.3-6.46,17.33-17.86,32.34-34.63,40.75-13.05,6.55-28.11,8.62-41.82,2.88a52.62,52.62,0,0,1-23.22-19.26c-5.75-8.62-9.8-20.16-7.65-30.57,1.24-6,5.14-11.3,11.23-12.93a10.23,10.23,0,0,1,12.63,6.38,15,15,0,0,1-1.65,13.11c-3.14,4.65-9,6.74-14.4,6.94-23.62.88-39.72-26.08-33.63-47.32a.34.34,0,0,0-.65-.17Z"/><path class="cls-16" d="M78.74,44.39A19,19,0,0,0,94.47,67.83L92,63.45a13.59,13.59,0,0,0,5.81,1.18c2-.18,4-1.52,4.31-3.49.24-1.59-.65-3.12-1.64-4.38A11.62,11.62,0,0,1,98,52.69c-.39-1.55.36-3.54,1.94-3.82,2.62-.45,4.46,3.84,7,3.06,1.47-.44,1.91-2.33,1.72-3.85-.7-5.44-6.33-9.18-11.8-9.52S86.07,40.5,81.18,43"/><path class="cls-16" d="M110.36,54.36c-1.2-.13-1.71,1.54-1.48,2.45a2.28,2.28,0,0,0,2.86,1.63,2.16,2.16,0,0,0,1.11-3.1,2.25,2.25,0,0,0-3.38-.56,1.07,1.07,0,0,0-.26,1,1.14,1.14,0,0,0,1.6.65s.21,0,.1,0,0,0,0-.05,0,0,0,.11,0-.07,0-.07a.38.38,0,0,1-.25-.3c-.08-.44.21-.86.2-1.29a.52.52,0,0,0-.51-.49Z"/><path class="cls-16" d="M113.12,47.69a.4.4,0,0,0-.22-.76.4.4,0,0,0,.22.76Z"/><path class="cls-17" d="M73.38,21.05S98.44,3.76,109.72,33.62c0,0-12.45-11.09-20.54-5.14Z"/><path class="cls-18" d="M6.9,10.65s8.9,32.2,63.77,54.58L89.4,27.53S38.86-3.47,6.9,10.65Z"/><polygon class="cls-19" points="89.4 27.53 70.22 66.16 72.3 67.58 91.76 28.08 89.4 27.53"/><path class="cls-17" d="M64.82,40.46l11.83,8.31,23.64,8.65S88,47.37,80,43.75C77.54,42.63,69.86,40.12,64.82,40.46Z"/><path class="cls-17" d="M56.14,58.58S60.38,89.41,89.78,77c0,0-16.62-1.37-17.88-11.33Z"/><g class="cls-20"><path class="cls-17" d="M64.82,40.46s7.56,15.79,9.61,17.21L79.22,48Z"/></g><g class="cls-21"><path class="cls-17" d="M18.83,31.05S29.88,17.59,31.45,7.17L13.63,0,0,17.36,18.38,31.18"/></g><path class="cls-17" d="M34,31.73c1.73,5.43,8,6.24,12.54,3.93a8.68,8.68,0,0,0,3.19-12.23A9.09,9.09,0,0,0,37,20.78c-4.44,3-6.19,9.83-2.25,14A1.33,1.33,0,0,0,37,33.38c-1.31-3.14-2-6,.16-9,2.26-3.19,7-3.06,9.63-.53,7.18,7-7.58,16.34-11.84,7.47-.3-.62-1.14-.19-.95.43Z"/><g class="cls-22"><path class="cls-23" d="M34.43,31.52c.83,2.73,3.83,4.37,6.69,4.42A9,9,0,0,0,46.85,34a7.83,7.83,0,0,0,2.92-5.24,7.75,7.75,0,0,0-5.32-7.91,8.24,8.24,0,0,0-9,3.34,8.76,8.76,0,0,0,.33,9.7"/></g><path class="cls-15" d="M99.33,54.64a48.75,48.75,0,0,0,43.44,16.58C157.67,69.1,175,56.7,170,39.51a17.34,17.34,0,0,0-14.35-12.29c-6.36-.66-11.85,3.23-14.58,8.79C134,50.39,145.32,63.59,158,69.31A68.23,68.23,0,0,0,185.3,75c8.62.07,18.71-.85,25.77-6.34,5.11-4,8.48-11.42,5.55-17.68-2.48-5.3-8.8-7.58-14.34-6.77-6.68,1-11.24,6.58-12.55,13-1.46,7.22,1,14.34,5.74,19.86,13,15.27,35.26,14.78,51.16,25.4,14.36,9.6,18.95,29.06,19.31,45.41A100.51,100.51,0,0,1,253.5,198a111.13,111.13,0,0,1-8,12.38c-.25.34.33.79.59.45,16.25-20.92,24.51-49.79,19.42-76.08-2.78-14.4-8.28-27.66-21.63-35.09-14.72-8.19-33.46-8.9-45.89-21.14-5.82-5.74-9.3-13.78-7.27-22,1.91-7.68,8.71-13,16.73-11.4,8.65,1.77,11.58,10.78,7.26,18.09-4.85,8.22-15.5,10.18-24.23,10.75-15.55,1-35.57-2.61-45.88-15.53-4.73-5.94-6.27-13.6-3.4-20.75,2.8-7,9.72-11.49,17.24-9.09C168.3,31.74,172,42.7,168.77,51.93c-3.25,9.43-12.14,15.25-21.45,17.66C130.13,74,111.16,67.7,99.6,54.37c-.16-.19-.43.08-.27.27Z"/><path class="cls-24" d="M214,231.49c5.1-.7,10.29-1.13,15.34-2.15.33-.07.26-.63-.08-.6-5.16.42-10.29,1.44-15.42,2.17-.38.06-.22.64.16.58Z"/><path class="cls-24" d="M232.49,208.08c1.3,2.74,2.5,5.53,3.92,8.21.2.38.73,0,.57-.34-1.19-2.78-2.62-5.46-3.93-8.2-.18-.38-.74-.05-.56.33Z"/><path class="cls-24" d="M242.82,239.12a45.83,45.83,0,0,1,5,8.92c.16.36.78.1.65-.28a34.58,34.58,0,0,0-5-9c-.26-.35-.86,0-.59.35Z"/><path class="cls-24" d="M251.67,227.12c4.87.38,9.75.87,14.63,1,.45,0,.42-.63,0-.68-4.86-.55-9.75-.76-14.63-1.08-.47,0-.47.7,0,.74Z"/></g></g></svg>