<svg xmlns="http://www.w3.org/2000/svg" width="19.542" height="19.543" viewBox="0 0 19.542 19.543"><path d="M-75.454-367.331l-.1-.292a2.75,2.75,0,0,0-1.68-1.587l-2.568-.7a2.514,2.514,0,0,0-2.2.575l-.929.929a9.861,9.861,0,0,1-6.938-6.938l.929-.929a2.517,2.517,0,0,0,.575-2.2l-.7-2.569a2.746,2.746,0,0,0-1.589-1.68l-.293-.1a2.331,2.331,0,0,0-2.171.512l-1.389,1.392a2.58,2.58,0,0,0-.407.956,16.414,16.414,0,0,0,4.8,11.789,16.421,16.421,0,0,0,11.751,4.806,2.577,2.577,0,0,0,1-.4l1.389-1.39a2.33,2.33,0,0,0,.511-2.171Z" transform="translate(94.909 382.909)" fill="#839ecb"/></svg>