<svg xmlns="http://www.w3.org/2000/svg" width="38.366" height="31.536" viewBox="0 0 38.366 31.536"><g transform="translate(0 -8)"><g transform="translate(0 8)"><path d="M35.169,39.536H3.2c-1.763,0-3.2-1.768-3.2-3.942V11.942C0,9.768,1.434,8,3.2,8H35.169c1.763,0,3.2,1.768,3.2,3.942V35.594C38.366,37.768,36.932,39.536,35.169,39.536ZM3.2,9.971a1.816,1.816,0,0,0-1.6,1.971V35.594a1.816,1.816,0,0,0,1.6,1.971H35.169a1.816,1.816,0,0,0,1.6-1.971V11.942a1.816,1.816,0,0,0-1.6-1.971Z" transform="translate(0 -8)" fill="#ababab"/><g transform="translate(6 7.803)"><path d="M19.183,29.191,6.335,17.84a1.237,1.237,0,0,1-.218-1.383.627.627,0,0,1,1.013-.3L19.183,26.809,31.236,16.16a.627.627,0,0,1,1.013.3,1.237,1.237,0,0,1-.218,1.383Z" transform="translate(-6 -16)" fill="#ababab"/></g><g transform="translate(4.999 17.652)"><path d="M6,34a1,1,0,0,1-.556-1.832l9-6a1,1,0,1,1,1.11,1.664l-9,6A1,1,0,0,1,6,34Z" transform="translate(-4.999 -25.999)" fill="#ababab"/></g><g transform="translate(22.366 17.652)"><path d="M42,34a1,1,0,0,1-.554-.168l-9-6a1,1,0,1,1,1.11-1.664l9,6A1,1,0,0,1,42,34Z" transform="translate(-31.999 -25.999)" fill="#ababab"/></g></g></g></svg>