<svg xmlns="http://www.w3.org/2000/svg" width="40" height="36" viewBox="0 0 40 36"><path d="M10,0H40a0,0,0,0,1,0,0V26A10,10,0,0,1,30,36H0a0,0,0,0,1,0,0V10A10,10,0,0,1,10,0Z" fill="#839ecb"/><g transform="translate(7.248 9.643)"><g transform="translate(0 0)"><path d="M23.271,24.925H2.116A2.118,2.118,0,0,1,0,22.809V10.116A2.118,2.118,0,0,1,2.116,8H23.271a2.118,2.118,0,0,1,2.116,2.116V22.809A2.118,2.118,0,0,1,23.271,24.925ZM2.116,9.058a1.059,1.059,0,0,0-1.058,1.058V22.809a1.059,1.059,0,0,0,1.058,1.058H23.271a1.059,1.059,0,0,0,1.058-1.058V10.116a1.059,1.059,0,0,0-1.058-1.058Z" transform="translate(0 -8)" fill="#fff"/><g transform="translate(3.173 4.231)"><path d="M15.52,22.977l-9.278-6a.529.529,0,0,1,.574-.889l8.7,5.632,8.7-5.632a.529.529,0,0,1,.574.889Z" transform="translate(-6 -16)" fill="#fff"/></g><g transform="translate(2.644 9.52)"><path d="M5.529,30.231a.529.529,0,0,1-.294-.969L10,26.089a.529.529,0,1,1,.587.88l-4.76,3.173A.531.531,0,0,1,5.529,30.231Z" transform="translate(-4.999 -25.999)" fill="#fff"/></g><g transform="translate(16.924 9.52)"><path d="M37.288,30.231A.531.531,0,0,1,37,30.142l-4.76-3.173a.529.529,0,0,1,.587-.88l4.76,3.173a.529.529,0,0,1-.294.969Z" transform="translate(-31.999 -25.999)" fill="#fff"/></g></g></g></svg>