<svg xmlns="http://www.w3.org/2000/svg" width="40" height="36" viewBox="0 0 40 36"><g transform="translate(0 -0.012)"><path d="M10,0H40a0,0,0,0,1,0,0V26A10,10,0,0,1,30,36H0a0,0,0,0,1,0,0V10A10,10,0,0,1,10,0Z" transform="translate(0 0.012)" fill="#839ecb"/><g transform="translate(14 8.232)"><path d="M14.5,11.5h3.75v3.75H14.5V24H10.75V15.25H7V11.5h3.75V9.931a7.086,7.086,0,0,1,1.4-4.39A4.5,4.5,0,0,1,15.63,4h2.62V7.75H15.625A1.123,1.123,0,0,0,14.5,8.874Z" transform="translate(-7 -4)" fill="none" stroke="#fff" stroke-width="1"/></g></g></svg>