<svg xmlns="http://www.w3.org/2000/svg" width="38.414" height="31.536" viewBox="0 0 38.414 31.536"><g transform="translate(1159.228 -1667.22)"><path d="M-1120.971,1682.591l.025,0a.133.133,0,0,0,.13-.109.133.133,0,0,0-.106-.154,30.246,30.246,0,0,0-7.586-.663,15.442,15.442,0,0,0,.458-3.684,8.339,8.339,0,0,0-2.235-5.934c.529-2.956-.088-4.3-.375-4.763-1.059-.377-3.684.969-5.118,1.917-2.338-.684-7.28-.618-9.133.177-3.419-2.449-5.228-2.074-5.228-2.074a7.209,7.209,0,0,0-.309,5.162,6.94,6.94,0,0,0-1.963,5.138,12.617,12.617,0,0,0,.581,4.055,40.8,40.8,0,0,0-7.3.671.134.134,0,0,0-.1.161.133.133,0,0,0,.129.1.128.128,0,0,0,.032,0,40.88,40.88,0,0,1,7.329-.663,7.983,7.983,0,0,0,.323.741,23.444,23.444,0,0,0-7.3,1.184l-.385.1a.133.133,0,0,0-.1.161.133.133,0,0,0,.129.1.128.128,0,0,0,.032,0l.386-.1a23.448,23.448,0,0,1,7.37-1.18c1.285,2.333,3.762,3.784,7.941,4.186a3.57,3.57,0,0,0-1.412,2.306,4.6,4.6,0,0,1-3.431.275c-1.643-.519-2.272-3.772-4.732-3.309-.533.1-.427.452.034.75a4.84,4.84,0,0,1,2,2.385,4.034,4.034,0,0,0,4.077,2.766,12.3,12.3,0,0,0,1.876-.132s.021,2.533.021,3.518c0,1.136-1.533,1.456-1.533,2,0,.216.507.237.915.237.806,0,2.482-.672,2.482-1.853,0-.938.015-4.092.015-4.643a1.776,1.776,0,0,1,.647-1.588s.08,6.439-.155,7.3c-.275,1.015-.772.871-.772,1.324,0,.673,2.018.165,2.687-1.313.517-1.151.291-7.467.291-7.467l.551-.011s.031,2.892.012,4.213c-.019,1.369-.112,3.1.7,3.916.534.536,2.265,1.478,2.265.618,0-.5-.949-.911-.949-2.265v-6.228c.757,0,.643,2.048.643,2.048l.056,3.8a1.94,1.94,0,0,0,1.5,1.967c.588.206,1.846.261,1.905-.084s-1.515-.86-1.529-1.934c-.009-.655.029-1.037.029-3.882s-.382-3.9-1.714-4.736c4.109-.423,6.652-1.439,7.892-4.162a30,30,0,0,1,7.872,1.252.115.115,0,0,0,.039.006.133.133,0,0,0,.126-.094.133.133,0,0,0-.088-.166,29.816,29.816,0,0,0-7.836-1.26c.1-.236.184-.484.263-.745A29.935,29.935,0,0,1-1120.971,1682.591Zm-31.132,4.329c-.164,0-.3-.089-.3-.2s.133-.2.3-.2.3.089.3.2S-1151.939,1686.92-1152.1,1686.92Zm.922.508c-.164,0-.3-.089-.3-.2s.133-.2.3-.2.3.089.3.2S-1151.017,1687.428-1151.181,1687.428Zm.266.469c0-.11.133-.2.3-.2s.3.089.3.2-.133.2-.3.2S-1150.915,1688.006-1150.915,1687.9Zm.8.961c-.165,0-.3-.089-.3-.2s.133-.2.3-.2.3.089.3.2S-1149.954,1688.858-1150.118,1688.858Zm.57.719c-.164,0-.3-.089-.3-.2s.133-.2.3-.2.3.089.3.2S-1149.384,1689.577-1149.548,1689.577Zm.758.609c-.165,0-.3-.089-.3-.2s.133-.2.3-.2.3.089.3.2S-1148.625,1690.186-1148.79,1690.186Zm1.071.4c-.165,0-.3-.089-.3-.2s.133-.2.3-.2.3.089.3.2S-1147.555,1690.585-1147.719,1690.585Zm1.078,0c-.165,0-.3-.089-.3-.2s.133-.2.3-.2.3.089.3.2S-1146.477,1690.585-1146.641,1690.585Zm1.078-.172c-.165,0-.3-.089-.3-.2s.133-.2.3-.2.3.089.3.2S-1145.4,1690.413-1145.562,1690.413Zm8.432-4.228c-.888.029-1.809.044-2.737.044s-1.841-.015-2.688-.046c-4.515-.158-7-2.064-7-5.365a4.3,4.3,0,0,1,1.007-2.668,5.026,5.026,0,0,1,4.023-1.664c.117,0,.328.013.754.039.914.057,2.444.152,3.959.152,1.372,0,2.759-.1,3.5-.156.349-.026.489-.036.579-.036,3.667,0,4.974,2.343,4.974,4.536C-1130.754,1683.286-1131.864,1686.013-1137.131,1686.185Z" transform="translate(0)" fill="#ababab"/><path d="M-1151.349,1694.7c.711,0,.012-1.1,0-1.618C-1151.357,1693.58-1152.06,1694.7-1151.349,1694.7Z" transform="translate(-1.653 -5.652)" fill="#ababab"/><path d="M-1134.138,1689.08a.132.132,0,0,0-.132.132.754.754,0,0,1-.8.618.9.9,0,0,1-.191-.021,1.043,1.043,0,0,1-.4-.183q-.033-.024-.063-.05a1.091,1.091,0,0,1-.151-.155.416.416,0,0,1-.1-.209.132.132,0,0,0-.132-.132.132.132,0,0,0-.132.132.4.4,0,0,0,.022.125.836.836,0,0,0,.113.214,1.272,1.272,0,0,0,.2.216,1.376,1.376,0,0,0,.267.184,1.249,1.249,0,0,0,.416.134,1.172,1.172,0,0,0,.155.01,1.156,1.156,0,0,0,.695-.224c.026-.019.051-.039.074-.061a1.021,1.021,0,0,0,.126-.135.8.8,0,0,0,.167-.384.631.631,0,0,0,.005-.079A.131.131,0,0,0-1134.138,1689.08Z" transform="translate(-5.024 -4.778)" fill="#ababab"/><path d="M-1135.272,1687.971a.461.461,0,0,0,.123.123.474.474,0,0,0,.057.033.455.455,0,0,0,.128.04.451.451,0,0,0,.07.005.455.455,0,0,0,.255-.078.466.466,0,0,0,.083-.072.452.452,0,0,0,.079-.13.448.448,0,0,0,.039-.177.456.456,0,0,0-.456-.456.455.455,0,0,0-.323.134l-.01.012a.455.455,0,0,0-.061.083.452.452,0,0,0-.054.136.455.455,0,0,0-.009.092.456.456,0,0,0,.009.092A.487.487,0,0,0-1135.272,1687.971Z" transform="translate(-5.219 -4.38)" fill="#ababab"/><path d="M-1140.435,1681.87a2.076,2.076,0,0,0-.3-.3,1.622,1.622,0,0,0-.339-.213,1.349,1.349,0,0,0-.369-.112,1.269,1.269,0,0,0-.193-.015c-1.044,0-1.89,1.261-1.89,2.816s.846,2.64,1.89,2.64a1.489,1.489,0,0,0,.193-.012,1.5,1.5,0,0,0,.369-.1,1.62,1.62,0,0,0,.339-.189,1.889,1.889,0,0,0,.3-.272,2.284,2.284,0,0,0,.256-.349,3.341,3.341,0,0,0,.432-1.72,3.728,3.728,0,0,0-.432-1.791A2.623,2.623,0,0,0-1140.435,1681.87Z" transform="translate(-3.432 -3.061)" fill="#ababab"/><path d="M-1128.569,1681.23c-1.044,0-1.89,1.261-1.89,2.816s.846,2.64,1.89,2.64,1.89-1.084,1.89-2.64S-1127.521,1681.23-1128.569,1681.23Z" transform="translate(-6.288 -3.062)" fill="#ababab"/></g></svg>