<svg xmlns="http://www.w3.org/2000/svg" width="40" height="36" viewBox="0 0 40 36"><g transform="translate(0 -0.023)"><path d="M10,0H40a0,0,0,0,1,0,0V26A10,10,0,0,1,30,36H0a0,0,0,0,1,0,0V10A10,10,0,0,1,10,0Z" transform="translate(0 0.023)" fill="#839ecb"/><g transform="translate(7 8)"><path d="M-1133.914,1677.391h.016a.088.088,0,0,0,.086-.072.088.088,0,0,0-.07-.1,20.016,20.016,0,0,0-5.02-.439,10.21,10.21,0,0,0,.3-2.437,5.517,5.517,0,0,0-1.479-3.927,4.433,4.433,0,0,0-.248-3.152c-.7-.249-2.437.641-3.386,1.269a12.542,12.542,0,0,0-6.043.117c-2.262-1.62-3.459-1.372-3.459-1.372a4.77,4.77,0,0,0-.2,3.416,4.592,4.592,0,0,0-1.3,3.4,8.352,8.352,0,0,0,.384,2.684,26.977,26.977,0,0,0-4.828.444.089.089,0,0,0-.064.106.088.088,0,0,0,.085.067.077.077,0,0,0,.021,0,27.059,27.059,0,0,1,4.849-.438,5.222,5.222,0,0,0,.214.49,15.522,15.522,0,0,0-4.828.783l-.255.064a.088.088,0,0,0-.064.106.088.088,0,0,0,.085.067.077.077,0,0,0,.021,0l.256-.064a15.516,15.516,0,0,1,4.877-.781c.85,1.544,2.49,2.5,5.255,2.77a2.361,2.361,0,0,0-.934,1.526,3.043,3.043,0,0,1-2.27.182c-1.087-.343-1.5-2.5-3.131-2.189-.353.067-.282.3.022.5a3.2,3.2,0,0,1,1.323,1.578,2.67,2.67,0,0,0,2.7,1.83,8.142,8.142,0,0,0,1.241-.087s.014,1.676.014,2.328c0,.751-1.014.963-1.014,1.325,0,.143.336.156.605.156.533,0,1.642-.445,1.642-1.226,0-.621.01-2.707.01-3.072a1.175,1.175,0,0,1,.428-1.051s.053,4.26-.1,4.831c-.182.671-.511.576-.511.876,0,.446,1.335.109,1.778-.869.342-.761.193-4.941.193-4.941l.365-.008s.021,1.913.008,2.788c-.013.906-.074,2.051.464,2.591.353.355,1.5.978,1.5.409,0-.331-.628-.6-.628-1.5v-4.121c.5,0,.426,1.355.426,1.355l.037,2.518a1.284,1.284,0,0,0,.992,1.3c.389.136,1.221.173,1.26-.055s-1-.569-1.012-1.28c-.006-.433.019-.686.019-2.569s-.253-2.579-1.134-3.134c2.719-.28,4.4-.952,5.222-2.754a19.851,19.851,0,0,1,5.209.828.075.075,0,0,0,.026,0,.088.088,0,0,0,.083-.062.088.088,0,0,0-.058-.11,19.733,19.733,0,0,0-5.185-.834c.064-.156.122-.321.174-.493A19.8,19.8,0,0,1-1133.914,1677.391Zm-20.6,2.865c-.109,0-.2-.059-.2-.131s.088-.131.2-.131.2.059.2.131S-1154.4,1680.255-1154.513,1680.255Zm.61.336c-.109,0-.2-.059-.2-.131s.088-.131.2-.131.2.059.2.131S-1153.795,1680.591-1153.9,1680.591Zm.176.31c0-.073.088-.131.2-.131s.2.059.2.131-.088.131-.2.131S-1153.727,1680.974-1153.727,1680.9Zm.527.636c-.109,0-.2-.059-.2-.132s.088-.131.2-.131.2.059.2.131S-1153.092,1681.538-1153.2,1681.538Zm.377.476c-.109,0-.2-.059-.2-.131s.088-.131.2-.131.2.059.2.131S-1152.714,1682.013-1152.823,1682.013Zm.5.4c-.109,0-.2-.059-.2-.131s.088-.131.2-.131.2.059.2.131S-1152.212,1682.417-1152.321,1682.417Zm.708.264c-.109,0-.2-.059-.2-.131s.088-.131.2-.131.2.059.2.131S-1151.5,1682.68-1151.613,1682.68Zm.714,0c-.109,0-.2-.059-.2-.131s.088-.131.2-.131.2.059.2.131S-1150.791,1682.68-1150.9,1682.68Zm.714-.114c-.109,0-.2-.059-.2-.131s.088-.131.2-.131.2.059.2.131S-1150.077,1682.566-1150.186,1682.566Zm5.579-2.8c-.588.019-1.2.029-1.811.029s-1.218-.01-1.779-.03c-2.987-.1-4.632-1.366-4.632-3.55a2.846,2.846,0,0,1,.666-1.765,3.326,3.326,0,0,1,2.662-1.1c.078,0,.217.009.5.026.6.038,1.617.1,2.62.1.908,0,1.826-.067,2.319-.1.231-.017.324-.024.383-.024,2.427,0,3.291,1.551,3.291,3C-1140.387,1677.851-1141.122,1679.655-1144.606,1679.769Z" transform="translate(1159.228 -1667.22)" fill="#fff"/><path d="M-1151.456,1694.15c.47,0,.008-.729,0-1.07C-1151.462,1693.411-1151.927,1694.15-1151.456,1694.15Z" transform="translate(1155.576 -1679.709)" fill="#fff"/><path d="M-1134.85,1689.08a.088.088,0,0,0-.088.088.5.5,0,0,1-.53.409.609.609,0,0,1-.126-.013.694.694,0,0,1-.262-.121l-.042-.033a.708.708,0,0,1-.1-.1.276.276,0,0,1-.068-.139.088.088,0,0,0-.088-.088.088.088,0,0,0-.087.088.268.268,0,0,0,.015.083.548.548,0,0,0,.075.141.833.833,0,0,0,.13.143.917.917,0,0,0,.177.122.831.831,0,0,0,.275.088.783.783,0,0,0,.1.007.766.766,0,0,0,.46-.148c.017-.013.033-.026.049-.04a.681.681,0,0,0,.083-.089.534.534,0,0,0,.11-.254.413.413,0,0,0,0-.052A.087.087,0,0,0-1134.85,1689.08Z" transform="translate(1148.127 -1677.777)" fill="#fff"/><path d="M-1135.3,1687.731a.308.308,0,0,0,.081.082.324.324,0,0,0,.038.022.3.3,0,0,0,.085.026.287.287,0,0,0,.046,0,.3.3,0,0,0,.169-.051.311.311,0,0,0,.055-.047.3.3,0,0,0,.052-.086.294.294,0,0,0,.026-.117.3.3,0,0,0-.3-.3.3.3,0,0,0-.213.088l-.006.008a.3.3,0,0,0-.04.055.3.3,0,0,0-.036.09.292.292,0,0,0-.006.061.3.3,0,0,0,.006.061A.32.32,0,0,0-1135.3,1687.731Z" transform="translate(1147.696 -1676.898)" fill="#fff"/><path d="M-1141.481,1681.652a1.371,1.371,0,0,0-.2-.2,1.072,1.072,0,0,0-.224-.141.9.9,0,0,0-.244-.074.84.84,0,0,0-.128-.01c-.69,0-1.25.834-1.25,1.863s.56,1.747,1.25,1.747a.986.986,0,0,0,.128-.008,1,1,0,0,0,.244-.065,1.068,1.068,0,0,0,.224-.125,1.251,1.251,0,0,0,.2-.18,1.5,1.5,0,0,0,.169-.231,2.21,2.21,0,0,0,.286-1.138,2.467,2.467,0,0,0-.286-1.185A1.741,1.741,0,0,0-1141.481,1681.652Z" transform="translate(1151.645 -1673.985)" fill="#fff"/><path d="M-1129.208,1681.23c-.691,0-1.25.834-1.25,1.864s.56,1.747,1.25,1.747,1.25-.718,1.25-1.747S-1128.515,1681.23-1129.208,1681.23Z" transform="translate(1145.334 -1673.986)" fill="#fff"/></g></g></svg>