<svg xmlns="http://www.w3.org/2000/svg" width="40" height="36" viewBox="0 0 40 36"><g transform="translate(0 -0.018)"><path d="M10,0H40a0,0,0,0,1,0,0V26A10,10,0,0,1,30,36H0a0,0,0,0,1,0,0V10A10,10,0,0,1,10,0Z" transform="translate(0 0.018)" fill="#839ecb"/><g transform="translate(9.697 8.232)"><path d="M20.513,16.7a4.925,4.925,0,1,0,5.113,4.922A5.03,5.03,0,0,0,20.513,16.7Zm0,8.075a3.155,3.155,0,1,1,3.275-3.153A3.23,3.23,0,0,1,20.513,24.775Z" transform="translate(-10.424 -11.766)" fill="none" stroke="#fff" stroke-width="1"/><circle cx="1.202" cy="1.202" r="1.202" transform="translate(14.283 3.454)" fill="none" stroke="#fff" stroke-width="1"/><path d="M21.95,6.436A5.854,5.854,0,0,0,17.678,4.8H9.3a5.521,5.521,0,0,0-5.9,5.787v8.181a5.685,5.685,0,0,0,1.709,4.27,6,6,0,0,0,4.231,1.556h8.3a6.073,6.073,0,0,0,4.271-1.556,5.656,5.656,0,0,0,1.668-4.23V10.587A5.662,5.662,0,0,0,21.95,6.436Zm-.163,12.372a3.862,3.862,0,0,1-1.18,2.913,4.253,4.253,0,0,1-2.97,1.038h-8.3a4.253,4.253,0,0,1-2.97-1.038,3.968,3.968,0,0,1-1.1-2.953V10.587a3.936,3.936,0,0,1,1.1-2.913,4.184,4.184,0,0,1,2.97-1.038h8.38a4.1,4.1,0,0,1,2.97,1.078,4.074,4.074,0,0,1,1.1,2.873v8.221Z" transform="translate(-3.4 -4.8)" fill="none" stroke="#fff" stroke-width="1"/></g></g></svg>