<svg xmlns="http://www.w3.org/2000/svg" width="32.146" height="31.537" viewBox="0 0 32.146 31.537"><g transform="translate(-3.4 -4.8)"><path d="M23.545,16.7A8.014,8.014,0,0,0,15.4,24.541a7.973,7.973,0,0,0,8.145,7.841,8.013,8.013,0,0,0,8.145-7.841A8.054,8.054,0,0,0,23.545,16.7Zm0,12.864a5.147,5.147,0,0,1-5.218-5.023,5.222,5.222,0,0,1,10.436,0A5.147,5.147,0,0,1,23.545,29.564Z" transform="translate(-4.073 -4.039)" fill="#ababab"/><circle cx="1.916" cy="1.916" r="1.916" transform="translate(26.154 10.303)" fill="#ababab"/><path d="M32.953,7.407a9.326,9.326,0,0,0-6.8-2.607H12.8c-5.638,0-9.4,3.688-9.4,9.219V27.054a9.058,9.058,0,0,0,2.722,6.8,9.562,9.562,0,0,0,6.74,2.48H26.083a9.675,9.675,0,0,0,6.8-2.48,9.01,9.01,0,0,0,2.657-6.74v-13.1A9.021,9.021,0,0,0,32.953,7.407Zm-.259,19.71a6.153,6.153,0,0,1-1.879,4.641,6.776,6.776,0,0,1-4.731,1.653H12.862a6.776,6.776,0,0,1-4.731-1.653,6.322,6.322,0,0,1-1.75-4.705V14.019a6.271,6.271,0,0,1,1.75-4.641,6.666,6.666,0,0,1,4.731-1.653H26.213a6.532,6.532,0,0,1,4.731,1.717,6.491,6.491,0,0,1,1.75,4.578v13.1Z" fill="#ababab"/></g></svg>