<svg xmlns="http://www.w3.org/2000/svg" width="20.075" height="20.075" viewBox="0 0 20.075 20.075"><g transform="translate(0)"><path d="M21,0Z" transform="translate(-0.925 0.335)" fill="#a2ffa8"/><path d="M7.232,5.1c-.195-.466-.342-.484-.637-.5-.1-.006-.212-.012-.336-.012a1.456,1.456,0,0,0-1.027.36A3.205,3.205,0,0,0,4.206,7.394,5.738,5.738,0,0,0,5.4,10.421a12.565,12.565,0,0,0,5,4.414c2.307.956,2.991.867,3.516.755a2.829,2.829,0,0,0,1.97-1.416,2.492,2.492,0,0,0,.171-1.393c-.071-.124-.266-.194-.56-.342s-1.728-.856-2-.95a.56.56,0,0,0-.72.218,12.316,12.316,0,0,1-.785,1.039.634.634,0,0,1-.708.112,7.4,7.4,0,0,1-2.354-1.452A8.926,8.926,0,0,1,7.3,9.383c-.171-.3-.018-.466.118-.625.148-.183.289-.313.436-.484a1.758,1.758,0,0,0,.324-.46.6.6,0,0,0-.041-.543C8.064,7.122,7.474,5.683,7.232,5.1Zm2.8-5.1A10.031,10.031,0,0,0,1.911,15.92L.661,19.65l3.858-1.233A10.036,10.036,0,1,0,10.04,0h-.006Z" fill="#a2ffa8" fill-rule="evenodd"/></g></svg>