<svg xmlns="http://www.w3.org/2000/svg" width="40" height="36" viewBox="0 0 40 36"><g transform="translate(0 -0.006)"><path d="M10,0H40a0,0,0,0,1,0,0V26A10,10,0,0,1,30,36H0a0,0,0,0,1,0,0V10A10,10,0,0,1,10,0Z" transform="translate(0 0.006)" fill="#839ecb"/><g transform="translate(9 7)"><path d="M21,0Z" transform="translate(0.357 0.357)" fill="none" stroke="#fff" stroke-width="1"/><path d="M7.694,5.424c-.207-.5-.364-.515-.678-.527-.107-.006-.226-.012-.358-.012a1.549,1.549,0,0,0-1.092.383,3.41,3.41,0,0,0-1.092,2.6,6.1,6.1,0,0,0,1.268,3.221,13.368,13.368,0,0,0,5.316,4.7c2.454,1.017,3.182.923,3.74.8a3.01,3.01,0,0,0,2.1-1.507,2.652,2.652,0,0,0,.182-1.482c-.075-.132-.282-.207-.6-.364s-1.839-.91-2.127-1.011a.6.6,0,0,0-.766.232,13.1,13.1,0,0,1-.835,1.1A.675.675,0,0,1,12,13.68a7.868,7.868,0,0,1-2.5-1.544A9.5,9.5,0,0,1,7.763,9.982c-.182-.314-.019-.5.125-.665.157-.195.308-.333.464-.515a1.87,1.87,0,0,0,.345-.49.637.637,0,0,0-.044-.578C8.579,7.577,7.952,6.045,7.694,5.424ZM10.675,0A10.671,10.671,0,0,0,2.033,16.937L.7,20.9l4.1-1.312A10.676,10.676,0,1,0,10.682,0h-.006Z" fill="none" stroke="#fff" stroke-width="1" fill-rule="evenodd"/></g></g></svg>